<svg xmlns="http://www.w3.org/2000/svg" viewBox="0 0 682.0059 1010"><path fill="#A37458" d="M536.69 500.993c-1.523-4.48-5.704-7.46-10.4-7.46H166.127c-4.726 0-8.928 3.042-10.407 7.542 0 0-138.642 424.265-138.662 424.368-4.48 37.872 59.087 67.728 95.664 67.728h443.334c18.36 0 102.25-7.273 109.07-61.254 4.84-38.323-128.437-430.923-128.437-430.923"/><path fill="#FBF8F6" d="M72.868 743.342l89.18-271.117h368.3l92.15 271.117"/><path fill="#E6DBD5" d="M556.056 1010H112.722c-29.056 0-73.143-15.78-96.61-42.207C3.99 954.148-1.477 938.8.343 923.47c.34-2.137.34-2.137 139.37-427.635 3.78-11.466 14.394-19.15 26.415-19.15H526.29c11.9 0 22.48 7.582 26.334 18.863 31.573 93.003 134.15 399.34 129.21 438.464C674.24 994.116 596.237 1010 556.055 1010zM33.682 928.77c-.144 5.242 2.404 10.83 7.603 16.666 16.17 18.207 50.63 30.906 71.437 30.906h443.334c18.277 0 87.484-7.89 92.375-46.522 1.86-24.967-63.442-233.966-126.33-419.457H170.39C156.87 551.77 42.95 900.353 33.683 928.77z"/><path fill="#E3B08D" d="M231.225 247.137H446.06L582.173 16.83H109.27"/><path fill="#B79584" d="M446.06 263.966H231.225c-6.236 0-11.96-3.452-14.877-8.96L94.39 24.7c-2.763-5.2-2.59-11.487.452-16.542C97.897 3.083 103.362 0 109.27 0h472.903c6.04 0 11.62 3.247 14.62 8.507 2.99 5.24 2.94 11.672-.133 16.89l-136.114 230.31c-3.02 5.136-8.538 8.26-14.486 8.26zm-204.694-33.658h195.087l116.222-196.65h-415.45l104.14 196.65z"/><path fill="#FBF8F6" d="M189.48 274.158c165.077 0 243.552.04 300.45.925 34.512-38.24 81.372-105.31 68.9-133.812-4.84-11.034-19.943-16.622-44.91-16.622h-360.8c-17.343 1.54-28.48 7.15-32.169 16.623-11.25 28.872 34.81 95.182 68.53 132.888"/><path fill="#E6DBD5" d="M497.308 292.035l-7.635-.123c-56.508-.884-132.866-.904-300.192-.904h-7.53l-5.024-5.61C167.648 275 86.79 182.594 105.263 135.168c4.263-10.932 15.76-24.576 46.357-27.288l362.3-.083c32.273 0 52.564 9 60.33 26.734 20.273 46.317-56.27 134.615-71.826 151.834l-5.116 5.67zM197.094 257.33c154.863 0 230.226.06 285.367.8 41.93-48.042 66.66-97.05 60.948-110.1-.8-1.827-7.655-6.553-29.487-6.553h-360.8c-11.744 1.11-16.028 4.726-16.48 5.897-5.25 13.46 18.227 61.173 60.454 109.955z"/><path fill="#BCB3BE" d="M168.275 269.103c-7.49 0-15.473 3.78-19.88 9.412-2.662 3.35-3.525 6.8-2.703 10.253 2.065 8.445 7.952 20.65 14.168 33.576 10.028 20.754 20.353 42.228 20.353 58.954 0 16.747-10.346 38.2-20.353 58.995-6.216 12.884-12.103 25.13-14.168 33.576-.822 3.43.06 6.903 2.702 10.273 4.418 5.63 12.41 9.39 19.88 9.39h355.89c7.572 0 16.182-4.13 20.477-9.863 3.545-4.726 2.57-8.24 2.23-9.39-2.547-8.836-9.883-21.453-17.662-34.81-12.76-21.986-25.982-44.754-25.603-63.288.38-17.015 13.234-37.05 25.644-56.386 7.48-11.63 15.196-23.67 17.703-31.706.318-1.068 1.345-4.377-1.983-8.918-4.305-5.836-13.07-10.07-20.806-10.07h-355.89z"/><path fill="#8C7C8E" d="M524.164 510.363h-355.89c-12.586 0-25.582-6.226-33.134-15.843-5.794-7.397-7.86-16.13-5.805-24.617 2.507-10.254 8.754-23.22 15.36-36.926 8.805-18.267 18.69-38.816 18.69-51.68 0-12.965-9.926-33.493-18.68-51.617-6.77-14.096-12.904-26.877-15.37-36.926-2.055-8.568.03-17.322 5.856-24.7 7.502-9.554 20.498-15.78 33.085-15.78h355.89c13.058 0 26.867 6.78 34.336 16.87 5.374 7.357 6.988 15.782 4.574 23.754-3.248 10.46-11.59 23.446-19.666 36-10.633 16.563-22.706 35.345-22.983 47.674-.278 13.747 12.256 35.343 23.3 54.392 8.334 14.28 16.173 27.72 19.317 38.65 2.414 8.036.678 16.687-4.942 24.166-7.407 9.905-21.052 16.583-33.936 16.583zm-361.252-35.487c1.438 1.007 3.513 1.808 5.363 1.808h355.89c1.633 0 3.625-.74 5.116-1.603-3.072-7.334-9.154-17.752-14.62-27.143-13.972-24.063-28.356-48.865-27.894-72.105.503-21.802 14.64-43.83 28.315-65.118 4.955-7.706 10.872-16.91 14.005-23.322-1.478-.802-3.36-1.46-4.92-1.46h-355.89c-1.85 0-3.935.822-5.363 1.81 2.27 6.8 7.15 16.972 11.877 26.815 11.054 22.89 22.263 46.07 22.263 66.74 0 20.55-11.168 43.728-21.946 66.126-4.9 10.172-9.874 20.487-12.196 27.453z"/><g><path fill="#BCB3BE" d="M608.505 381.318c0 22.974-18.606 41.59-41.59 41.59-22.972 0-41.59-18.616-41.59-41.59 0-22.993 18.618-41.59 41.59-41.59 22.984 0 41.59 18.597 41.59 41.59z"/><path fill="#8C7C8E" d="M566.915 439.738c-32.21 0-58.42-26.2-58.42-58.42s26.21-58.42 58.42-58.42 58.42 26.2 58.42 58.42-26.21 58.42-58.42 58.42zm0-83.18c-13.654 0-24.76 11.116-24.76 24.76 0 13.645 11.106 24.762 24.76 24.762s24.762-11.117 24.762-24.762c0-13.644-11.107-24.76-24.762-24.76z"/></g><g><path fill="#8C7C8E" d="M643.562 588.715c-.68 0-1.357-.04-2.045-.123-9.236-1.11-15.813-9.515-14.692-18.74 2.27-18.762-13.51-75.332-39.28-140.78-3.4-8.65.843-18.43 9.505-21.842 8.65-3.35 18.422.863 21.832 9.514 13.88 35.282 45.71 121.236 41.365 157.154-1.04 8.55-8.292 14.817-16.685 14.817z"/></g></svg>