<svg width="60" height="60" viewBox="0 0 60 60" xmlns="http://www.w3.org/2000/svg"><title>RSS</title><path d="M30 60c16.57 0 30-13.43 30-30S46.57 0 30 0 0 13.43 0 30s13.43 30 30 30zm-6.734-17.722c-1.95 0-3.534-1.573-3.534-3.52 0-1.94 1.584-3.53 3.534-3.53 1.957 0 3.538 1.59 3.538 3.53 0 1.947-1.58 3.52-3.538 3.52zm8.876-.008c0-3.325-1.292-6.454-3.635-8.796-2.346-2.347-5.46-3.642-8.775-3.642v-5.088c9.658 0 17.52 7.862 17.52 17.526h-5.11zm9.023-.003c0-11.828-9.618-21.455-21.433-21.455v-5.09c14.63 0 26.536 11.913 26.536 26.546h-5.103z" fill="#D8D8D8" fill-rule="evenodd"/></svg>