<svg id="_2" data-name="2" xmlns="http://www.w3.org/2000/svg" viewBox="0 0 63.4 52.51"><defs><style>.cls-1{fill:#000;}</style></defs><title>chancesnow</title><path class="cls-1" d="M39.4 44.84H23.52a1.32 1.32 0 1 1 0-2.64h15.86a1.32 1.32 0 1 1 .02 2.64z"/><path class="cls-1" d="M27.23 52.51a1.32 1.32 0 0 1-1.16-2l8.45-15.3a1.325 1.325 0 0 1 2.32 1.28l-8.46 15.34a1.32 1.32 0 0 1-1.15.68z"/><path class="cls-1" d="M17.19 44.84h-2.67a14.47 14.47 0 1 1 4.72-28.17A22.44 22.44 0 1 1 45.6 44.32a1.324 1.324 0 0 1-.55-2.59 19.77 19.77 0 1 0-23.55-23 1.32 1.32 0 0 1-1.87.94 11.85 11.85 0 1 0-5.11 22.52h2.64a1.325 1.325 0 1 1 .03 2.65z"/><path class="cls-1" d="M35.7 52.51a1.32 1.32 0 0 1-1.16-.68l-8.46-15.34a1.325 1.325 0 0 1 2.32-1.28l8.46 15.34a1.32 1.32 0 0 1-1.16 1.96z"/></svg>