<svg id="_21" data-name="21" xmlns="http://www.w3.org/2000/svg" viewBox="0 0 30.72 30.63"><defs><style>.cls-1{fill:#000;}</style></defs><title>F</title><path class="cls-1" d="M13.77 30.63a1.32 1.32 0 0 1-1.32-1.32V3.09a1.32 1.32 0 0 1 1.32-1.32H29.4a1.325 1.325 0 0 1 0 2.65H15.1v24.89a1.32 1.32 0 0 1-1.33 1.32z"/><path class="cls-1" d="M27.27 16.59H14.03a1.325 1.325 0 1 1 0-2.65h13.24a1.325 1.325 0 0 1 0 2.65zM2.91 5.82a2.91 2.91 0 1 1 2.91-2.91 2.92 2.92 0 0 1-2.91 2.91zm0-4.77A1.85 1.85 0 1 0 4.76 2.9a1.85 1.85 0 0 0-1.85-1.84z"/></svg>