<svg id="_11" data-name="11" xmlns="http://www.w3.org/2000/svg" viewBox="0 0 71.68 40.87"><defs><style>.cls-1{fill:#000;}</style></defs><title>morning_clear</title><path class="cls-1" d="M16.36 26.43a26.18 26.18 0 0 1-.32-3.63 20.06 20.06 0 1 1 40.12 0 25.94 25.94 0 0 1-.32 3.61h2.72a29.79 29.79 0 0 0 .27-3.63 22.74 22.74 0 1 0-45.47 0 29.21 29.21 0 0 0 .27 3.61h2.73z"/><path class="cls-1" d="M70.36 26.96h-69a1.34 1.34 0 1 1 0-2.67h69a1.34 1.34 0 0 1 0 2.67zM59.65 33.92H12.04a1.34 1.34 0 0 1 0-2.67h47.61a1.34 1.34 0 1 1 0 2.67zM48.95 40.87H22.73a1.34 1.34 0 0 1 0-2.67h26.21a1.34 1.34 0 0 1 .01 2.67z"/></svg>