<svg id="_3" data-name="3" xmlns="http://www.w3.org/2000/svg" viewBox="0 0 71.68 55.52"><defs><style>.cls-1{fill:#000;}</style></defs><title>mostlysunny</title><path class="cls-1" d="M49.22 55.52H22.81a14.5 14.5 0 1 1 4.73-28.23 22.45 22.45 0 1 1 21.68 28.23zM22.8 29.14a11.69 11.69 0 1 0 0 23.38h26.42a19.66 19.66 0 1 0-19.45-23.21 1.35 1.35 0 0 1-.7.95 1.32 1.32 0 0 1-1.16 0 11.76 11.76 0 0 0-5.1-1.12zM4.81 35.4a1.32 1.32 0 0 1-1.1-.59A22.45 22.45 0 0 1 39.08 7.37a1.34 1.34 0 1 1-2 1.78A19.81 19.81 0 0 0 5.87 33.36a1.32 1.32 0 0 1-1.06 2.04z"/></svg>