<svg id="_3" data-name="3" xmlns="http://www.w3.org/2000/svg" viewBox="0 0 71.68 50.23"><defs><style>.cls-1{fill:#000;}</style></defs><title>mostlycloudy</title><path class="cls-1" d="M49.25 50.23H22.81A14.5 14.5 0 1 1 27.54 22a22.45 22.45 0 1 1 21.71 28.23zM22.83 23.85a11.69 11.69 0 1 0 0 23.38h26.42A19.66 19.66 0 1 0 29.8 24.02a1.35 1.35 0 0 1-.7.95 1.32 1.32 0 0 1-1.16 0 11.77 11.77 0 0 0-5.13-1.12z"/><path class="cls-1" d="M3.81 33.7a1.32 1.32 0 0 1-1.17-.7A22.44 22.44 0 0 1 35.11 3.91a1.32 1.32 0 0 1-1.49 2.18A19.8 19.8 0 0 0 4.97 31.76a1.32 1.32 0 0 1-1.16 1.94z"/></svg>