<svg id="_14" data-name="14" xmlns="http://www.w3.org/2000/svg" viewBox="0 0 71.68 67.61"><defs><style>.cls-1{fill:#000;}</style></defs><title>night_snow</title><path class="cls-1" d="M49.27 54.96H22.91a14.43 14.43 0 1 1 4.72-28.08 22.39 22.39 0 1 1 21.64 28.08zM22.91 28.74a11.795 11.795 0 1 0 0 23.59h26.36a19.72 19.72 0 1 0-19.41-23.39 1.32 1.32 0 0 1-1.86.94 11.75 11.75 0 0 0-5.09-1.15z"/><circle class="cls-1" cx="27.6" cy="59.71" r="1.58"/><circle class="cls-1" cx="36.04" cy="59.71" r="1.58"/><circle class="cls-1" cx="44.47" cy="59.71" r="1.58"/><circle class="cls-1" cx="52.91" cy="59.71" r="1.58"/><circle class="cls-1" cx="31.82" cy="66.03" r="1.58"/><circle class="cls-1" cx="40.26" cy="66.03" r="1.58"/><circle class="cls-1" cx="48.69" cy="66.03" r="1.58"/><path class="cls-1" d="M4.72 35.18a1.32 1.32 0 0 1-1.11-.6A22.39 22.39 0 0 1 .25 19.05a1.32 1.32 0 0 1 1.9-1A11.86 11.86 0 0 0 18.08 2.12a1.32 1.32 0 0 1 1-1.9 22.51 22.51 0 0 1 19.18 6.31l.42.44.09.1a1.32 1.32 0 0 1-1.92 1.8l-.09-.1-.36-.37a19.87 19.87 0 0 0-15.22-5.75A14.5 14.5 0 0 1 2.69 21.14a19.73 19.73 0 0 0 3.14 12 1.32 1.32 0 0 1-1.11 2.04z"/></svg>