<svg id="_12" data-name="12" xmlns="http://www.w3.org/2000/svg" viewBox="0 0 71.68 55.08"><defs><style>.cls-1{fill:#fff;}</style></defs><title>night_partlycloudy</title><path class="cls-1" d="M49.22 55.08H22.8a14.46 14.46 0 1 1 4.73-28.14 22.44 22.44 0 1 1 21.69 28.14zM22.8 28.8a11.82 11.82 0 1 0 0 23.64h26.42A19.76 19.76 0 1 0 29.77 29a1.32 1.32 0 0 1-1.87.94 11.77 11.77 0 0 0-5.1-1.14zM4.72 35.26a1.32 1.32 0 0 1-1.11-.6A22.44 22.44 0 0 1 .24 19.1a1.32 1.32 0 0 1 1.9-1 11.89 11.89 0 0 0 16-16 1.32 1.32 0 0 1 1-1.9 22.56 22.56 0 0 1 19.23 6.33l.42.44.09.1a1.323 1.323 0 1 1-1.93 1.81l-.09-.1-.36-.37a19.91 19.91 0 0 0-15.25-5.76A14.53 14.53 0 0 1 2.66 21.21a19.77 19.77 0 0 0 3.15 12 1.32 1.32 0 0 1-1.09 2.05z"/></svg>