<svg id="_2" data-name="2" xmlns="http://www.w3.org/2000/svg" viewBox="0 0 63.4 52.51"><defs><style>.cls-1{fill:#000;}</style></defs><title>chancesnow</title><path class="cls-1" d="M406.88,433.52H391a1.32,1.32,0,1,1,0-2.64h15.86A1.32,1.32,0,1,1,406.88,433.52Z" transform="translate(-367.48 -388.68)"/><path class="cls-1" d="M394.71,441.19a1.32,1.32,0,0,1-1.16-2L402,423.89a1.32,1.32,0,0,1,2.32,1.28l-8.46,15.34A1.32,1.32,0,0,1,394.71,441.19Z" transform="translate(-367.48 -388.68)"/><path class="cls-1" d="M384.67,433.52H382a14.47,14.47,0,1,1,4.72-28.17A22.44,22.44,0,1,1,413.08,433a1.32,1.32,0,0,1-.55-2.59,19.77,19.77,0,1,0-23.55-23,1.32,1.32,0,0,1-1.87.94A11.85,11.85,0,1,0,382,430.87h2.64A1.32,1.32,0,1,1,384.67,433.52Z" transform="translate(-367.48 -388.68)"/><path class="cls-1" d="M403.18,441.19a1.32,1.32,0,0,1-1.16-.68l-8.46-15.34a1.32,1.32,0,0,1,2.32-1.28l8.46,15.34A1.32,1.32,0,0,1,403.18,441.19Z" transform="translate(-367.48 -388.68)"/></svg>