<svg id="_1" data-name="1" xmlns="http://www.w3.org/2000/svg" viewBox="0 0 63.4 59.59"><defs><style>.cls-1{fill:#000;}</style></defs><title>chancerain</title><path class="cls-1" d="M319.31,334.38h-0.16a14.47,14.47,0,1,1,6.47-28,22.44,22.44,0,1,1,31.79,25.76,1.32,1.32,0,1,1-1.18-2.36,19.78,19.78,0,1,0-28.37-21.34,1.32,1.32,0,0,1-1.86.94,11.84,11.84,0,1,0-6.53,22.42A1.32,1.32,0,0,1,319.31,334.38Z" transform="translate(-306.36 -289.68)"/><path class="cls-1" d="M325.38,338.17a1.32,1.32,0,0,1-1.32-1.32V330a1.32,1.32,0,1,1,2.64,0v6.87A1.32,1.32,0,0,1,325.38,338.17Z" transform="translate(-306.36 -289.68)"/><path class="cls-1" d="M333.84,338.17a1.32,1.32,0,0,1-1.32-1.32V330a1.32,1.32,0,1,1,2.64,0v6.87A1.32,1.32,0,0,1,333.84,338.17Z" transform="translate(-306.36 -289.68)"/><path class="cls-1" d="M342.29,338.17a1.32,1.32,0,0,1-1.32-1.32V330a1.32,1.32,0,1,1,2.64,0v6.87A1.32,1.32,0,0,1,342.29,338.17Z" transform="translate(-306.36 -289.68)"/><path class="cls-1" d="M350.74,338.17a1.32,1.32,0,0,1-1.32-1.32V330a1.32,1.32,0,1,1,2.64,0v6.87A1.32,1.32,0,0,1,350.74,338.17Z" transform="translate(-306.36 -289.68)"/><path class="cls-1" d="M329.61,349.27a1.32,1.32,0,0,1-1.32-1.32v-6.87a1.32,1.32,0,1,1,2.64,0v6.87A1.32,1.32,0,0,1,329.61,349.27Z" transform="translate(-306.36 -289.68)"/><path class="cls-1" d="M338.06,349.27a1.32,1.32,0,0,1-1.32-1.32v-6.87a1.32,1.32,0,1,1,2.64,0v6.87A1.32,1.32,0,0,1,338.06,349.27Z" transform="translate(-306.36 -289.68)"/><path class="cls-1" d="M346.52,349.27a1.32,1.32,0,0,1-1.32-1.32v-6.87a1.32,1.32,0,1,1,2.64,0v6.87A1.32,1.32,0,0,1,346.52,349.27Z" transform="translate(-306.36 -289.68)"/></svg>