<svg id="_2" data-name="2" xmlns="http://www.w3.org/2000/svg" viewBox="0 0 63.4 59.35"><defs><style>.cls-1{fill:#000;}</style></defs><title>chancetstorms</title><path class="cls-1" d="M265.61,433.49h-5.81a14.47,14.47,0,1,1,4.72-28.15,22.45,22.45,0,1,1,24.71,28,1.32,1.32,0,1,1-.36-2.62,19.8,19.8,0,1,0-22.12-23.33,1.32,1.32,0,0,1-1.87.94,11.84,11.84,0,1,0-5.09,22.51h5.81A1.32,1.32,0,1,1,265.61,433.49Z" transform="translate(-245.25 -388.68)"/><path class="cls-1" d="M271.95,448a1.32,1.32,0,0,1-1-2.12l9.48-12.41h-8.43a1.32,1.32,0,0,1-1-2.15l5.29-6.61a1.32,1.32,0,1,1,2.06,1.65l-3.57,4.46H283A1.32,1.32,0,0,1,284.1,433L273,447.51A1.32,1.32,0,0,1,271.95,448Z" transform="translate(-245.25 -388.68)"/></svg>