<svg id="_18" data-name="18" xmlns="http://www.w3.org/2000/svg" viewBox="0 0 49.06 44.86"><defs><style>.cls-1{fill:#fff;}</style></defs><title>night_clear</title><path class="cls-1" d="M215,2067.7h0a22.66,22.66,0,0,1-19.57-11.29,22.13,22.13,0,0,1,19.69-33.56,1.35,1.35,0,0,1,1.16.66,1.32,1.32,0,0,1,0,1.33,19.33,19.33,0,0,0,16.91,29.29,1.33,1.33,0,0,1,1.15,2A21.56,21.56,0,0,1,215,2067.7ZM213,2025.58a18.65,18.65,0,0,0-7.91,2.29,19.91,19.91,0,0,0-7.29,27.21,19.9,19.9,0,0,0,27.21,7.29,18.65,18.65,0,0,0,5.94-5.71A21.93,21.93,0,0,1,213,2025.58Z" transform="translate(-192.43 -2022.84)"/><path class="cls-1" d="M229,2042.46h-3.72a1.33,1.33,0,1,1,0-2.65H229A1.33,1.33,0,1,1,229,2042.46Z" transform="translate(-192.43 -2022.84)"/><path class="cls-1" d="M227.14,2044.32a1.33,1.33,0,0,1-1.33-1.33v-3.72a1.33,1.33,0,1,1,2.66,0V2043A1.33,1.33,0,0,1,227.14,2044.32Z" transform="translate(-192.43 -2022.84)"/><path class="cls-1" d="M240.15,2030.78h-5.84a1.33,1.33,0,0,1,0-2.66h5.84A1.33,1.33,0,0,1,240.15,2030.78Z" transform="translate(-192.43 -2022.84)"/><path class="cls-1" d="M237.23,2033.7a1.33,1.33,0,0,1-1.33-1.33v-5.84a1.33,1.33,0,1,1,2.65,0v5.84A1.33,1.33,0,0,1,237.23,2033.7Z" transform="translate(-192.43 -2022.84)"/></svg>
