<svg id="_11" data-name="11" xmlns="http://www.w3.org/2000/svg" viewBox="0 0 61.94 40.98"><defs><style>.cls-1{fill:#000;}</style></defs><title>evening_clear</title><path class="cls-1" d="M544.07,1344.55c0.21-1.15-.2-1.8-0.2-3a20.17,20.17,0,1,0-40.34,0l0.14,1.39-3.09,1.62v-3a22.89,22.89,0,1,1,45.78,0v3.54Z" transform="translate(-492.77 -1318.65)"/><path class="cls-1" d="M536.13,1351.28a1.34,1.34,0,0,1-.84-0.29l-20.17-16L495,1351a1.35,1.35,0,0,1-1.68-2.11l21-16.7a1.34,1.34,0,0,1,1.68,0l21,16.7A1.35,1.35,0,0,1,536.13,1351.28Z" transform="translate(-492.77 -1318.65)"/><path class="cls-1" d="M536.67,1359.63H510.28a1.35,1.35,0,0,1,0-2.69h26.39A1.35,1.35,0,1,1,536.67,1359.63Z" transform="translate(-492.77 -1318.65)"/><path class="cls-1" d="M553.36,1351.28a1.34,1.34,0,0,1-.78-0.25l-12.14-8.6-6.76,4.83a1.35,1.35,0,1,1-1.57-2.19l7.54-5.39a1.35,1.35,0,0,1,1.56,0l12.93,9.16A1.35,1.35,0,0,1,553.36,1351.28Z" transform="translate(-492.77 -1318.65)"/></svg>