<svg id="_21" data-name="21" xmlns="http://www.w3.org/2000/svg" viewBox="0 0 30.72 30.63"><defs><style>.cls-1{fill:#000;}</style></defs><title>F</title><path class="cls-1" d="M398.5,2318.23a1.32,1.32,0,0,1-1.32-1.32v-26.22a1.32,1.32,0,0,1,1.32-1.32h15.63a1.32,1.32,0,0,1,0,2.65h-14.3v24.89A1.32,1.32,0,0,1,398.5,2318.23Z" transform="translate(-384.73 -2287.6)"/><path class="cls-1" d="M412,2304.19H398.76a1.32,1.32,0,1,1,0-2.65H412A1.32,1.32,0,0,1,412,2304.19Z" transform="translate(-384.73 -2287.6)"/><path class="cls-1" d="M387.64,2293.42a2.91,2.91,0,1,1,2.91-2.91A2.92,2.92,0,0,1,387.64,2293.42Zm0-4.77a1.85,1.85,0,1,0,1.85,1.85A1.85,1.85,0,0,0,387.64,2288.66Z" transform="translate(-384.73 -2287.6)"/></svg>