<svg id="_3" data-name="3" xmlns="http://www.w3.org/2000/svg" viewBox="0 0 71.68 44.95"><defs><style>.cls-1{fill:#000;}</style></defs><title>hazy</title><path class="cls-1" d="M230.8,546H204.38a14.5,14.5,0,1,1,4.73-28.23A22.45,22.45,0,1,1,230.8,546Zm-26.42-26.38a11.69,11.69,0,1,0,0,23.38H230.8a19.66,19.66,0,1,0-19.45-23.21,1.35,1.35,0,0,1-.7.95,1.32,1.32,0,0,1-1.16,0A11.77,11.77,0,0,0,204.38,519.62Z" transform="translate(-181.58 -501.05)"/><path class="cls-1" d="M185.17,534.35a1.32,1.32,0,0,1-1.18-.72,22.2,22.2,0,0,1-2.42-10.13,22.46,22.46,0,0,1,30.9-20.81,1.32,1.32,0,0,1-1,2.45,19.81,19.81,0,0,0-25.14,27.29A1.32,1.32,0,0,1,185.17,534.35Z" transform="translate(-181.58 -501.05)"/></svg>