<svg id="_11" data-name="11" xmlns="http://www.w3.org/2000/svg" viewBox="0 0 71.68 40.87"><defs><style>.cls-1{fill:#000;}</style></defs><title>morning_clear</title><path class="cls-1" d="M260,1345.08a26.18,26.18,0,0,1-.32-3.63,20.06,20.06,0,1,1,40.12,0,25.94,25.94,0,0,1-.32,3.61h2.72a29.79,29.79,0,0,0,.27-3.63,22.74,22.74,0,1,0-45.47,0,29.21,29.21,0,0,0,.27,3.61H260Z" transform="translate(-243.64 -1318.65)"/><path class="cls-1" d="M314,1345.61H245a1.34,1.34,0,1,1,0-2.67h69A1.34,1.34,0,0,1,314,1345.61Z" transform="translate(-243.64 -1318.65)"/><path class="cls-1" d="M303.29,1352.57H255.68a1.34,1.34,0,0,1,0-2.67h47.61A1.34,1.34,0,1,1,303.29,1352.57Z" transform="translate(-243.64 -1318.65)"/><path class="cls-1" d="M292.59,1359.52H266.37a1.34,1.34,0,0,1,0-2.67h26.21A1.34,1.34,0,0,1,292.59,1359.52Z" transform="translate(-243.64 -1318.65)"/></svg>