<svg id="_3" data-name="3" xmlns="http://www.w3.org/2000/svg" viewBox="0 0 71.68 50.23"><defs><style>.cls-1{fill:#000;}</style></defs><title>mostlycloudy</title><path class="cls-1" d="M352,546H325.56a14.5,14.5,0,1,1,4.73-28.23A22.45,22.45,0,1,1,352,546Zm-26.42-26.38a11.69,11.69,0,1,0,0,23.38H352a19.66,19.66,0,1,0-19.45-23.21,1.35,1.35,0,0,1-.7.95,1.32,1.32,0,0,1-1.16,0A11.77,11.77,0,0,0,325.56,519.62Z" transform="translate(-302.75 -495.77)"/><path class="cls-1" d="M306.56,529.47a1.32,1.32,0,0,1-1.17-.7,22.44,22.44,0,0,1,32.47-29.09,1.32,1.32,0,0,1-1.49,2.18,19.8,19.8,0,0,0-28.65,25.67A1.32,1.32,0,0,1,306.56,529.47Z" transform="translate(-302.75 -495.77)"/></svg>