<svg id="_3" data-name="3" xmlns="http://www.w3.org/2000/svg" viewBox="0 0 71.68 55.52"><defs><style>.cls-1{fill:#000;}</style></defs><title>mostlysunny</title><path class="cls-1" d="M473.14,546H446.73a14.5,14.5,0,1,1,4.73-28.23A22.45,22.45,0,1,1,473.14,546Zm-26.42-26.38a11.69,11.69,0,1,0,0,23.38h26.42a19.66,19.66,0,1,0-19.45-23.21,1.35,1.35,0,0,1-.7.95,1.32,1.32,0,0,1-1.16,0A11.76,11.76,0,0,0,446.73,519.62Z" transform="translate(-423.92 -490.48)"/><path class="cls-1" d="M428.73,525.88a1.32,1.32,0,0,1-1.1-.59A22.45,22.45,0,0,1,463,497.85a1.32,1.32,0,1,1-2,1.78,19.81,19.81,0,0,0-31.21,24.21A1.32,1.32,0,0,1,428.73,525.88Z" transform="translate(-423.92 -490.48)"/></svg>