<svg id="_13" data-name="13" xmlns="http://www.w3.org/2000/svg" viewBox="0 0 71.68 69.87"><defs><style>.cls-1{fill:#000;}</style></defs><title>night_rain</title><path class="cls-1" d="M445.14,1555.81H445a14.47,14.47,0,1,1,6.47-28,22.44,22.44,0,1,1,31.79,25.76,1.32,1.32,0,0,1-1.18-2.36,19.78,19.78,0,1,0-28.37-21.34,1.32,1.32,0,0,1-1.87.94,11.84,11.84,0,1,0-6.53,22.42A1.32,1.32,0,0,1,445.14,1555.81Z" transform="translate(-423.92 -1500.82)"/><path class="cls-1" d="M451.22,1559.6a1.32,1.32,0,0,1-1.32-1.32v-6.87a1.32,1.32,0,1,1,2.64,0v6.87A1.32,1.32,0,0,1,451.22,1559.6Z" transform="translate(-423.92 -1500.82)"/><path class="cls-1" d="M459.67,1559.6a1.32,1.32,0,0,1-1.32-1.32v-6.87a1.32,1.32,0,1,1,2.64,0v6.87A1.32,1.32,0,0,1,459.67,1559.6Z" transform="translate(-423.92 -1500.82)"/><path class="cls-1" d="M468.13,1559.6a1.32,1.32,0,0,1-1.32-1.32v-6.87a1.32,1.32,0,1,1,2.64,0v6.87A1.32,1.32,0,0,1,468.13,1559.6Z" transform="translate(-423.92 -1500.82)"/><path class="cls-1" d="M476.58,1559.6a1.32,1.32,0,0,1-1.32-1.32v-6.87a1.32,1.32,0,1,1,2.64,0v6.87A1.32,1.32,0,0,1,476.58,1559.6Z" transform="translate(-423.92 -1500.82)"/><path class="cls-1" d="M455.45,1570.7a1.32,1.32,0,0,1-1.32-1.32v-6.87a1.32,1.32,0,1,1,2.64,0v6.87A1.32,1.32,0,0,1,455.45,1570.7Z" transform="translate(-423.92 -1500.82)"/><path class="cls-1" d="M463.9,1570.7a1.32,1.32,0,0,1-1.32-1.32v-6.87a1.32,1.32,0,1,1,2.64,0v6.87A1.32,1.32,0,0,1,463.9,1570.7Z" transform="translate(-423.92 -1500.82)"/><path class="cls-1" d="M472.35,1570.7a1.32,1.32,0,0,1-1.32-1.32v-6.87a1.32,1.32,0,1,1,2.64,0v6.87A1.32,1.32,0,0,1,472.35,1570.7Z" transform="translate(-423.92 -1500.82)"/><path class="cls-1" d="M428.65,1536.09a1.32,1.32,0,0,1-1.11-.6,22.43,22.43,0,0,1-3.37-15.56,1.32,1.32,0,0,1,1.9-1,11.89,11.89,0,0,0,16-16,1.32,1.32,0,0,1,1-1.9,22.56,22.56,0,0,1,19.23,6.33l0.42,0.44,0.09,0.1a1.32,1.32,0,0,1-1.93,1.81l-0.09-.1-0.36-.37a19.92,19.92,0,0,0-15.25-5.76A14.53,14.53,0,0,1,426.6,1522a19.77,19.77,0,0,0,3.15,12A1.32,1.32,0,0,1,428.65,1536.09Z" transform="translate(-423.92 -1500.82)"/></svg>