<svg id="_14" data-name="14" xmlns="http://www.w3.org/2000/svg" viewBox="0 0 71.68 67.61"><defs><style>.cls-1{fill:#000;}</style></defs><title>night_snow</title><path class="cls-1" d="M473.78,1665.16H447.42a14.43,14.43,0,1,1,4.72-28.08A22.39,22.39,0,1,1,473.78,1665.16Zm-26.36-26.22a11.79,11.79,0,1,0,0,23.59h26.36a19.72,19.72,0,1,0-19.41-23.39,1.32,1.32,0,0,1-1.86.94A11.75,11.75,0,0,0,447.42,1638.93Z" transform="translate(-424.51 -1610.2)"/><circle class="cls-1" cx="27.6" cy="59.71" r="1.58"/><circle class="cls-1" cx="36.04" cy="59.71" r="1.58"/><circle class="cls-1" cx="44.47" cy="59.71" r="1.58"/><circle class="cls-1" cx="52.91" cy="59.71" r="1.58"/><circle class="cls-1" cx="31.82" cy="66.03" r="1.58"/><circle class="cls-1" cx="40.26" cy="66.03" r="1.58"/><circle class="cls-1" cx="48.69" cy="66.03" r="1.58"/><path class="cls-1" d="M429.23,1645.38a1.32,1.32,0,0,1-1.11-.6,22.39,22.39,0,0,1-3.36-15.53,1.32,1.32,0,0,1,1.9-1,11.86,11.86,0,0,0,15.93-15.93,1.32,1.32,0,0,1,1-1.9,22.51,22.51,0,0,1,19.18,6.31l0.42,0.44,0.09,0.1a1.32,1.32,0,0,1-1.92,1.8l-0.09-.1-0.36-.37a19.87,19.87,0,0,0-15.22-5.75,14.5,14.5,0,0,1-18.49,18.49,19.73,19.73,0,0,0,3.14,12A1.32,1.32,0,0,1,429.23,1645.38Z" transform="translate(-424.51 -1610.2)"/></svg>