<svg id="_12" data-name="12" xmlns="http://www.w3.org/2000/svg" viewBox="0 0 71.68 49.8"><defs><style>.cls-1{fill:#000;}</style></defs><title>night_mostlycloudy</title><path class="cls-1" d="M291.36,1460.37H264.94a14.46,14.46,0,1,1,4.73-28.14A22.44,22.44,0,1,1,291.36,1460.37Zm-26.42-26.28a11.82,11.82,0,1,0,0,23.64h26.42a19.76,19.76,0,1,0-19.45-23.45,1.32,1.32,0,0,1-1.86.94A11.78,11.78,0,0,0,264.94,1434.09Z" transform="translate(-242.14 -1410.56)"/><path class="cls-1" d="M245.89,1444.21a1.32,1.32,0,0,1-1.17-.7,22.63,22.63,0,0,1-2.34-13.84,1.32,1.32,0,0,1,1.9-1,11.89,11.89,0,0,0,16-16,1.32,1.32,0,0,1,1-1.9A22.42,22.42,0,0,1,277,1414.3a1.32,1.32,0,1,1-1.46,2.2,19.74,19.74,0,0,0-12.18-3.26,14.53,14.53,0,0,1-18.53,18.53,20,20,0,0,0,2.25,10.49A1.32,1.32,0,0,1,245.89,1444.21Z" transform="translate(-242.14 -1410.56)"/></svg>