<svg id="_15" data-name="15" xmlns="http://www.w3.org/2000/svg" viewBox="0 0 71.68 69.64"><defs><style>.cls-1{fill:#000;}</style></defs><title>night_tstorms</title><path class="cls-1" d="M429,1753.27a1.32,1.32,0,0,1-1.11-.6,22.44,22.44,0,0,1-3.37-15.57,1.32,1.32,0,0,1,1.9-1,11.89,11.89,0,0,0,16-16,1.32,1.32,0,0,1,1-1.9,22.57,22.57,0,0,1,19.23,6.33l0.42,0.44,0.09,0.1a1.32,1.32,0,0,1-1.93,1.81l-0.09-.1-0.36-.37a19.93,19.93,0,0,0-15.26-5.76A14.54,14.54,0,0,1,427,1739.21a19.79,19.79,0,0,0,3.15,12A1.32,1.32,0,0,1,429,1753.27Z" transform="translate(-424.29 -1717.99)"/><path class="cls-1" d="M452.92,1773.09H447.1a14.47,14.47,0,1,1,4.72-28.15,22.45,22.45,0,1,1,24.71,28,1.32,1.32,0,0,1-.36-2.62A19.8,19.8,0,1,0,454.06,1747a1.32,1.32,0,0,1-1.87.94,11.84,11.84,0,1,0-5.09,22.51h5.81A1.32,1.32,0,0,1,452.92,1773.09Z" transform="translate(-424.29 -1717.99)"/><path class="cls-1" d="M459.26,1787.63a1.32,1.32,0,0,1-1-2.12l9.48-12.41h-8.43a1.32,1.32,0,0,1-1-2.15l5.29-6.61a1.32,1.32,0,1,1,2.06,1.65l-3.57,4.46h8.35a1.32,1.32,0,0,1,1,2.12l-11.1,14.54A1.32,1.32,0,0,1,459.26,1787.63Z" transform="translate(-424.29 -1717.99)"/></svg>