<svg id="_12" data-name="12" xmlns="http://www.w3.org/2000/svg" viewBox="0 0 71.68 55.08"><defs><style>.cls-1{fill:#fff;}</style></defs><title>night_partlycloudy</title><path class="cls-1" d="M412.56,1460.37H386.14a14.46,14.46,0,1,1,4.73-28.14A22.44,22.44,0,1,1,412.56,1460.37Zm-26.42-26.28a11.82,11.82,0,1,0,0,23.64h26.42a19.76,19.76,0,1,0-19.45-23.44,1.32,1.32,0,0,1-1.87.94A11.77,11.77,0,0,0,386.14,1434.09Z" transform="translate(-363.34 -1405.29)"/><path class="cls-1" d="M368.06,1440.55a1.32,1.32,0,0,1-1.11-.6,22.44,22.44,0,0,1-3.37-15.56,1.32,1.32,0,0,1,1.9-1,11.89,11.89,0,0,0,16-16,1.32,1.32,0,0,1,1-1.9,22.56,22.56,0,0,1,19.23,6.33l0.42,0.44,0.09,0.1a1.32,1.32,0,1,1-1.93,1.81l-0.09-.1-0.36-.37a19.91,19.91,0,0,0-15.25-5.76A14.53,14.53,0,0,1,366,1426.5a19.77,19.77,0,0,0,3.15,12A1.32,1.32,0,0,1,368.06,1440.55Z" transform="translate(-363.34 -1405.29)"/></svg>
