<svg id="_3" data-name="3" xmlns="http://www.w3.org/2000/svg" viewBox="0 0 71.68 60.8"><defs><style>.cls-1{fill:#000;}</style></defs><title>partlycloudy</title><path class="cls-1" d="M594.32,546H567.9a14.5,14.5,0,1,1,4.73-28.23A22.45,22.45,0,1,1,594.32,546ZM567.9,519.62a11.69,11.69,0,1,0,0,23.38h26.42a19.66,19.66,0,1,0-19.45-23.21,1.35,1.35,0,0,1-.7.95,1.32,1.32,0,0,1-1.16,0A11.77,11.77,0,0,0,567.9,519.62Z" transform="translate(-545.1 -485.2)"/><path class="cls-1" d="M551.49,522.69a1.32,1.32,0,0,1-1-.46A22.45,22.45,0,1,1,587.3,497a1.32,1.32,0,1,1-2.32,1.26,19.81,19.81,0,1,0-32.49,22.27A1.32,1.32,0,0,1,551.49,522.69Z" transform="translate(-545.1 -485.2)"/></svg>