<svg id="_21" data-name="21" xmlns="http://www.w3.org/2000/svg" viewBox="0 0 13.24 44.81"><title>thermometer</title><path d="M522.38,2325.32a6.62,6.62,0,0,1-4.24-11.71v-28.77s0-.05,0-0.08,0-.07,0-0.11a4.15,4.15,0,0,1,4.24-4.15,4.21,4.21,0,0,1,4.24,4.18s0,0.06,0,.09,0,0,0,.07v28.77A6.62,6.62,0,0,1,522.38,2325.32ZM520.79,2285v29.24a1.32,1.32,0,0,1-.59,1.11,4,4,0,1,0,4.37,0,1.32,1.32,0,0,1-.6-1.11V2285a1.36,1.36,0,0,1,0-.19,1.42,1.42,0,0,1,0-.18,1.55,1.55,0,0,0-1.59-1.5,1.52,1.52,0,0,0-1.59,1.5,1.35,1.35,0,0,1,0,.19A1.37,1.37,0,0,1,520.79,2285Zm-1.31-1.51a1.32,1.32,0,0,1,1.31,1.13A1.32,1.32,0,0,0,519.48,2283.52Zm5.79,0a1.29,1.29,0,0,0-.59.14A1.31,1.31,0,0,1,525.27,2283.52Z" transform="translate(-515.76 -2280.51)"/></svg>