<svg id="_2" data-name="2" xmlns="http://www.w3.org/2000/svg" viewBox="0 0 63.4 59.13"><defs><style>.cls-1{fill:#000;}</style></defs><title>tstorms</title><path class="cls-1" d="M454.07,348.81a1.32,1.32,0,0,1-1-2.12l9.48-12.41h-8.43a1.32,1.32,0,0,1-1-2.15l5.29-6.61a1.32,1.32,0,1,1,2.06,1.65l-3.57,4.46h8.35a1.32,1.32,0,0,1,1.05,2.12l-11.1,14.54A1.32,1.32,0,0,1,454.07,348.81Z" transform="translate(-428.59 -289.68)"/><path class="cls-1" d="M440.85,334.29l-0.22,0a14.47,14.47,0,1,1,7.21-27.93A22.45,22.45,0,0,1,492,312.09a22.25,22.25,0,0,1-10.55,19,1.32,1.32,0,0,1-1.4-2.24,19.76,19.76,0,0,0-10.51-36.52,19.83,19.83,0,0,0-19.45,16.07,1.32,1.32,0,0,1-1.86.94,11.84,11.84,0,1,0-7.14,22.33A1.32,1.32,0,0,1,440.85,334.29Z" transform="translate(-428.59 -289.68)"/><path class="cls-1" d="M445.23,337.54a1.32,1.32,0,0,1-.48-1.8l3.43-5.95a1.32,1.32,0,1,1,2.29,1.32L447,337.05A1.32,1.32,0,0,1,445.23,337.54Z" transform="translate(-428.59 -289.68)"/><path class="cls-1" d="M470.59,337.54a1.32,1.32,0,0,1-.48-1.8l3.43-5.95a1.32,1.32,0,1,1,2.29,1.32l-3.43,5.95A1.32,1.32,0,0,1,470.59,337.54Z" transform="translate(-428.59 -289.68)"/><path class="cls-1" d="M444.17,348.63a1.32,1.32,0,0,1-.48-1.8l3.43-5.95a1.32,1.32,0,1,1,2.29,1.32L446,348.15A1.32,1.32,0,0,1,444.17,348.63Z" transform="translate(-428.59 -289.68)"/><path class="cls-1" d="M463.08,348.63a1.32,1.32,0,0,1-.48-1.8l3.43-5.95a1.32,1.32,0,1,1,2.29,1.32l-3.43,5.95A1.32,1.32,0,0,1,463.08,348.63Z" transform="translate(-428.59 -289.68)"/></svg>