<svg id="_2" data-name="2" xmlns="http://www.w3.org/2000/svg" viewBox="0 0 63.4 50.32"><defs><style>.cls-1{fill:#fff;}</style></defs><title>wind</title><path class="cls-1" d="M520.89,423.17H491.08a1.33,1.33,0,0,1,0-2.66h29.81a4.06,4.06,0,0,0,0-8.12,1.33,1.33,0,1,1,0-2.66A6.72,6.72,0,0,1,520.89,423.17Z" transform="translate(-489.7 -388.68)"/><path class="cls-1" d="M520.89,428.49H493.21a1.33,1.33,0,1,1,0-2.66h27.68A1.33,1.33,0,1,1,520.89,428.49Z" transform="translate(-489.7 -388.68)"/><path class="cls-1" d="M530.47,433.81h-1.06a1.33,1.33,0,1,1,0-2.66h1.06a19.91,19.91,0,1,0-19.6-23.62,1.33,1.33,0,0,1-1.88,1,11.87,11.87,0,0,0-5.14-1.15,12,12,0,0,0-11.55,8.87,1.33,1.33,0,0,1-2.57-.71,14.65,14.65,0,0,1,18.88-10A22.61,22.61,0,1,1,530.47,433.81Z" transform="translate(-489.7 -388.68)"/><path class="cls-1" d="M520.89,439a1.33,1.33,0,1,1,0-2.66,1.27,1.27,0,1,0,0-2.53H501.2a1.33,1.33,0,1,1,0-2.66h19.69A3.93,3.93,0,1,1,520.89,439Z" transform="translate(-489.7 -388.68)"/></svg>