<svg width="33" height="27" viewBox="0 0 33 27" xmlns="http://www.w3.org/2000/svg"><title>Shape</title><path d="M27.097 0h-21.1L0 7.882l16.468 18.996L33 7.888 27.097 0zm-7.005 8.804L16.414 21.19 12.736 8.804h7.356zM13.385 6.95l3.186-4.287 3.187 4.288h-6.372zm4.894-5.096h6.367L21.463 6.14 18.28 1.853zm-6.552 4.22l-3.134-4.22h6.27l-3.136 4.22zm-1.656.877H3.038l3.56-4.676L10.07 6.95zm.73 1.854l3.934 13.246L3.253 8.804h7.55zm11.224 0h7.72L18.03 22.26l3.996-13.456zM23.17 6.95l3.394-4.57 3.42 4.57H23.17z" fill="#FFF" fill-rule="evenodd"/></svg>