<svg width="60" height="60" viewBox="0 0 60 60" xmlns="http://www.w3.org/2000/svg"><title>Github</title><path d="M30 60c16.57 0 30-13.43 30-30S46.57 0 30 0 0 13.43 0 30s13.43 30 30 30zM17.543 30.57c-.44-1.278-.637-2.74-.637-4.374 0-2.9.92-3.993 2.154-5.54-.943-3.305.34-5.564.34-5.564s1.984-.404 5.735 2.235c2.033-.856 7.454-.927 10.02-.19 1.573-1.022 4.453-2.473 5.615-2.067.314.498.992 1.948.41 5.135.395.7 2.446 2.188 2.453 6.398-.033 1.552-.197 2.863-.502 3.97.06 0-.39 1.375-.495 1.372-1.36 2.936-4.15 4.032-8.658 4.487 1.46.904 1.88 2.038 1.88 5.106s-.042 3.48-.032 4.186c.015 1.157 1.742 1.712 1.677 2.085-.064.37-1.445.31-2.09.09-1.827-.627-1.644-2.12-1.644-2.12l-.06-4.103S33.83 39.47 33 39.47v6.713c0 1.46 1.042 1.903 1.042 2.442 0 .928-1.9-.087-2.486-.666-.89-.88-.79-2.747-.768-4.223.02-1.425-.014-4.542-.014-4.542l-.605.012s.247 6.81-.32 8.05c-.734 1.594-2.948 2.142-2.948 1.416 0-.488.545-.333.847-1.427.257-.93.168-7.872.168-7.872s-.71.412-.71 1.712c0 .595-.016 3.995-.016 5.006 0 1.273-1.84 1.998-2.723 1.998-.448 0-1.005-.022-1.005-.255 0-.59 1.682-.935 1.682-2.16 0-1.06-.023-3.792-.023-3.792s-.848.143-2.06.143c-3.048 0-4.012-1.912-4.47-2.982-.598-1.394-1.373-2.048-2.196-2.572-.505-.32-.62-.7-.037-.808 2.7-.5 3.39 3.008 5.193 3.567 1.287.4 2.94.227 3.764-.296.11-1.07.895-1.997 1.55-2.485-4.586-.434-7.304-2-8.714-4.514-.017 0-.664-1.368-.61-1.367z" fill="#D8D8D8" fill-rule="evenodd"/></svg>