<?xml version="1.0" encoding="utf-8"?>
<!-- Generator: Adobe Illustrator 17.1.0, SVG Export Plug-In . SVG Version: 6.00 Build 0)  -->
<!DOCTYPE svg PUBLIC "-//W3C//DTD SVG 1.1//EN" "http://www.w3.org/Graphics/SVG/1.1/DTD/svg11.dtd">
<svg version="1.1" id="chemex" xmlns="http://www.w3.org/2000/svg" xmlns:xlink="http://www.w3.org/1999/xlink" x="0px" y="0px"
	 viewBox="0 0 682.0059 1010" enable-background="new 0 0 682.0059 1010" xml:space="preserve">
<g id="chemex-chemex">
	<path fill="#A37458" d="M536.6888,500.9932c-1.5214-4.4795-5.7031-7.4595-10.3984-7.4595H166.1273
		c-4.7261,0-8.9282,3.0415-10.4077,7.5415c0,0-138.6411,424.2646-138.6616,424.3682
		c-4.4795,37.8711,59.0874,67.7275,95.6636,67.7275H556.056c18.3594,0,102.2491-7.2744,109.0703-61.2549
		C669.9662,893.5928,536.6888,500.9932,536.6888,500.9932"/>
	<polygon fill="#FBF8F6" points="72.868,743.3418 162.0482,472.2251 530.349,472.2251 622.4994,743.3418 	"/>
	<g>
		<path fill="#E6DBD5" d="M556.056,1010H112.7216c-29.0557,0-73.1421-15.7812-96.6089-42.207
			c-12.1236-13.6447-17.5894-28.9942-15.771-44.3223c0.3393-2.1377,0.3393-2.1377,139.3706-427.6353
			c3.7807-11.4663,14.394-19.1513,26.415-19.1513h360.1631c11.8984,0,22.4805,7.5825,26.334,18.8638
			c31.5723,93.0029,134.1504,399.3388,129.209,438.4638C674.2396,994.1162,596.2377,1010,556.056,1010L556.056,1010z
			 M33.682,928.7715c-0.144,5.2402,2.4038,10.8291,7.603,16.665c16.1714,18.2061,50.6314,30.9053,71.4366,30.9053H556.056
			c18.2774,0,87.4844-7.8906,92.375-46.5215c1.8594-24.9668-63.4433-233.9658-126.332-419.457H170.391
			C156.87,551.7686,42.9491,900.3535,33.682,928.7715L33.682,928.7715z"/>
	</g>
	<g>
		<polygon fill="#E3B08D" points="231.225,247.1367 446.0599,247.1367 582.1732,16.8291 109.2694,16.8291 		"/>
		<path fill="#B79584" d="M446.0599,263.9663H231.225c-6.2363,0-11.9595-3.4521-14.8775-8.9595L94.3924,24.6992
			c-2.7637-5.1987-2.5894-11.4863,0.4521-16.5415C97.8959,3.0825,103.3617,0,109.2694,0h472.9038
			c6.041,0,11.6192,3.2466,14.6192,8.5073c2.9902,5.2398,2.9394,11.6714-0.1328,16.8906L460.5463,255.7056
			C457.5258,260.8428,452.0082,263.9663,446.0599,263.9663L446.0599,263.9663z M241.3656,230.3076h195.0869L552.6752,33.6587
			H137.226L241.3656,230.3076L241.3656,230.3076z"/>
	</g>
	<g>
		<path fill="#FBF8F6" d="M189.4808,274.1582c165.0762,0,243.5508,0.041,300.4502,0.9248
			c34.5108-38.2407,81.3711-105.311,68.8985-133.812c-4.8389-11.0347-19.9424-16.6235-44.9082-16.6235H153.12
			c-17.3428,1.541-28.48,7.1508-32.1685,16.6235C109.7011,170.1416,155.7606,236.4517,189.4808,274.1582"/>
		<path fill="#E6DBD5" d="M497.308,292.0352l-7.6348-0.1231c-56.5078-0.8838-132.8662-0.9043-300.1924-0.9043h-7.5312
			l-5.0239-5.6099c-9.2779-10.3974-90.1363-102.8037-71.6631-150.2299c4.2636-10.9317,15.7607-24.5757,46.3574-27.2881
			l362.3013-0.0825c32.2715,0,52.5625,9.0005,60.33,26.7338c20.2715,46.316-56.2714,134.6133-71.8271,151.8326L497.308,292.0352
			L497.308,292.0352z M197.0936,257.3291c154.8638,0,230.2261,0.0615,285.3677,0.8013
			c41.9287-48.0425,66.6592-97.0508,60.9463-110.0992c-0.8008-1.8286-7.6543-6.5546-29.4863-6.5546H153.12
			c-11.7437,1.1093-16.0278,4.726-16.48,5.8974C131.39,160.833,154.8666,208.5469,197.0936,257.3291L197.0936,257.3291z"/>
	</g>
	<g>
		<path fill="#BCB3BE" d="M168.2748,269.103c-7.4902,0-15.4732,3.7813-19.8809,9.4116c-2.6611,3.3492-3.5239,6.8013-2.7021,10.2535
			c2.0649,8.4453,7.9521,20.6513,14.1679,33.5761c10.0279,20.7539,20.3536,42.2276,20.3536,58.9537
			c0,16.747-10.3462,38.1997-20.3536,58.9951c-6.2158,12.8838-12.103,25.1303-14.1679,33.5761
			c-0.8218,3.4317,0.0615,6.9043,2.7021,10.274c4.418,5.6303,12.4112,9.3906,19.8809,9.3906h355.8896
			c7.5713,0,16.1817-4.1299,20.4766-9.8633c3.5439-4.7261,2.5684-8.2397,2.2295-9.3906
			c-2.5479-8.8355-9.8838-21.4527-17.6621-34.8091c-12.7598-21.9868-25.9824-44.7544-25.6035-63.2891
			c0.3808-17.0141,13.2343-37.0493,25.6445-56.3852c7.4805-11.6304,15.1963-23.6719,17.7031-31.7066
			c0.3184-1.0683,1.3457-4.3764-1.9824-8.9179c-4.3047-5.8355-13.0693-10.0689-20.8057-10.0689H168.2748z"/>
		<path fill="#8C7C8E" d="M524.1644,510.3633H168.2748c-12.5864,0-25.583-6.2266-33.1348-15.8433
			c-5.7944-7.3974-7.8598-16.1304-5.8047-24.6167c2.5069-10.2539,8.7534-23.2202,15.3599-36.9258
			c8.8052-18.2675,18.689-38.8164,18.689-51.6796c0-12.9659-9.9253-33.4937-18.6788-51.6177
			c-6.7709-14.0962-12.9042-26.8775-15.3701-36.9258c-2.0551-8.5684,0.0308-17.3223,5.856-24.6992
			c7.5005-9.5552,20.4971-15.7813,33.0835-15.7813h355.8896c13.0586,0,26.8672,6.7813,34.3369,16.8706
			c5.3731,7.356,6.9864,15.7813,4.5723,23.7539c-3.248,10.459-11.5898,23.4458-19.666,36.001
			c-10.6328,16.562-22.7051,35.3433-22.9824,47.6724c-0.2783,13.747,12.2558,35.3432,23.3008,54.3921
			c8.333,14.2812,16.1718,27.7197,19.3164,38.6513c2.414,8.0347,0.6777,16.6856-4.9424,24.1651
			C550.6927,503.6851,537.0482,510.3633,524.1644,510.3633L524.1644,510.3633z M162.9115,474.876
			c1.4385,1.0068,3.5137,1.8081,5.3633,1.8081h355.8896c1.6338,0,3.626-0.7398,5.1162-1.6026
			c-3.0722-7.3359-9.1543-17.7539-14.6201-27.1445c-13.9726-24.0625-28.3564-48.8647-27.8945-72.105
			c0.5029-21.8017,14.6406-43.83,28.3154-65.1181c4.9532-7.7056,10.8711-16.9112,14.0039-23.3223
			c-1.4785-0.8018-3.3593-1.459-4.9209-1.459H168.2748c-1.8496,0-3.9351,0.8218-5.3633,1.8081
			c2.2705,6.8018,7.1509,16.9732,11.877,26.8159c11.0551,22.8912,22.2641,46.0699,22.2641,66.7413
			c0,20.5488-11.168,43.7275-21.9458,66.125C170.2059,457.5947,165.2333,467.9102,162.9115,474.876L162.9115,474.876z"/>
	</g>
	<g>
		<path fill="#BCB3BE" d="M608.5053,381.3184c0,22.9736-18.6066,41.5903-41.59,41.5903c-22.9726,0-41.5898-18.6167-41.5898-41.5903
			c0-22.9937,18.6172-41.5899,41.5898-41.5899C589.8987,339.7285,608.5053,358.3247,608.5053,381.3184z"/>
		<path fill="#8C7C8E" d="M566.9153,439.7378c-32.209,0-58.4199-26.1992-58.4199-58.4194c0-32.2198,26.2109-58.419,58.4199-58.419
			c32.21,0,58.4199,26.1992,58.4199,58.419C625.3353,413.5386,599.1254,439.7378,566.9153,439.7378L566.9153,439.7378z
			 M566.9153,356.5576c-13.6543,0-24.7607,11.1167-24.7607,24.7608c0,13.6445,11.1064,24.7612,24.7607,24.7612
			s24.7617-11.1167,24.7617-24.7612C591.6771,367.6743,580.5696,356.5576,566.9153,356.5576L566.9153,356.5576z"/>
	</g>
	<g>
		<path fill="#8C7C8E" d="M643.5619,588.7148c-0.6787,0-1.3574-0.041-2.0449-0.123c-9.2364-1.1104-15.8125-9.5147-14.6924-18.7402
			c2.2705-18.7613-13.5108-75.3316-39.2783-140.7784c-3.4004-8.6508,0.8418-18.4321,9.5039-21.8432
			c8.6504-3.3491,18.4219,0.8633,21.832,9.5141c13.8809,35.2818,45.7109,121.2364,41.3652,157.1543
			C659.2084,582.4473,651.9554,588.7148,643.5619,588.7148L643.5619,588.7148z"/>
	</g>
</g>
</svg>
