<?xml version="1.0" encoding="UTF-8" standalone="no"?>
<svg width="33px" height="27px" viewBox="0 0 33 27" version="1.1" xmlns="http://www.w3.org/2000/svg" xmlns:xlink="http://www.w3.org/1999/xlink">
    <!-- Generator: Sketch 3.7.1 (28215) - http://www.bohemiancoding.com/sketch -->
    <title>Shape</title>
    <desc>Created with Sketch.</desc>
    <defs></defs>
    <g id="Page-1" stroke="none" stroke-width="1" fill="none" fill-rule="evenodd">
        <g id="Desktop-HD" transform="translate(-705.000000, -1072.000000)" fill="#FFFFFF">
            <g id="gems" transform="translate(-5.000000, 977.000000)">
                <path d="M737.096965,95 L715.997936,95 L710,102.881865 L726.468444,121.8776 L743,102.887797 L737.096965,95 L737.096965,95 Z M730.092376,103.804275 L726.41432,116.189852 L722.736172,103.804275 L730.092376,103.804275 L730.092376,103.804275 Z M723.385279,101.950744 L726.571129,97.6625056 L729.756887,101.950744 L723.385279,101.950744 L723.385279,101.950744 Z M728.279159,96.8535317 L734.647152,96.8535317 L731.463155,101.139268 L728.279159,96.8535317 L728.279159,96.8535317 Z M721.728407,101.072819 L718.5939,96.8535317 L724.8631,96.8535317 L721.728407,101.072819 L721.728407,101.072819 Z M720.071628,101.950744 L713.037846,101.950744 L716.596905,97.2737273 L720.071628,101.950744 L720.071628,101.950744 Z M720.802661,103.804275 L724.736133,117.049798 L713.252855,103.804275 L720.802661,103.804275 L720.802661,103.804275 Z M732.025795,103.804275 L739.744642,103.804275 L728.029581,117.261472 L732.025795,103.804275 L732.025795,103.804275 Z M733.169331,101.950744 L736.563982,97.3814175 L739.983655,101.950744 L733.169331,101.950744 L733.169331,101.950744 Z" id="Shape"></path>
            </g>
        </g>
    </g>
</svg>