<?xml version="1.0" encoding="UTF-8" standalone="no"?>
<svg width="60px" height="60px" viewBox="0 0 60 60" version="1.1" xmlns="http://www.w3.org/2000/svg" xmlns:xlink="http://www.w3.org/1999/xlink" xmlns:sketch="http://www.bohemiancoding.com/sketch/ns">
    <!-- Generator: Sketch 3.5.1 (25234) - http://www.bohemiancoding.com/sketch -->
    <title>Github</title>
    <desc>Created with Sketch.</desc>
    <defs></defs>
    <g id="Page-1" stroke="none" stroke-width="1" fill="none" fill-rule="evenodd" sketch:type="MSPage">
        <path d="M30,60 C46.5685433,60 60,46.5685433 60,30 C60,13.4314567 46.5685433,0 30,0 C13.4314567,0 0,13.4314567 0,30 C0,46.5685433 13.4314567,60 30,60 Z M17.5434535,30.5685404 C17.1020074,29.2918976 16.9064546,27.8297516 16.9064546,26.1963718 C16.9064546,23.2968136 17.8261339,22.2028201 19.0604405,20.6569598 C18.116559,17.351197 19.3992697,15.0918628 19.3992697,15.0918628 C19.3992697,15.0918628 21.383841,14.6875608 25.1351647,17.3274146 C27.1681402,16.4712458 32.5894081,16.3998984 35.1548295,17.1371548 C36.7279653,16.1145088 39.6080138,14.6637784 40.7697141,15.0699829 C41.0843412,15.5675121 41.7619997,17.0182425 41.1811496,20.205093 C41.5751596,20.9042975 43.6255606,22.3930799 43.6333052,26.6025764 C43.6003904,28.1550957 43.4358162,29.4659853 43.1308699,30.5742482 C43.1889043,30.5737742 42.7414173,31.9484966 42.6352111,31.9450695 C41.2750537,34.880682 38.4850369,35.9766732 33.9766718,36.4323453 C35.4375099,37.336079 35.8566901,38.470027 35.8566901,41.5379651 C35.8566901,44.6059032 35.8150625,45.0178155 35.8247433,45.7236791 C35.8402326,46.8814096 37.5672937,47.4360167 37.5024321,47.8089257 C37.4375705,48.1808835 36.0570834,48.1209517 35.4123397,47.8992991 C33.584598,47.2733446 33.7675658,45.7788544 33.7675658,45.7788544 L33.7065765,41.6768547 C33.7065765,41.6768547 33.8314593,39.4688905 33.0008436,39.4688905 L33.0008436,46.1831564 C33.0008436,47.6424485 34.0415334,48.0857536 34.0415334,48.62514 C34.0415334,49.5526562 32.1421535,48.5376205 31.5564629,47.9592309 C30.664858,47.0792797 30.7665068,45.2128317 30.7878046,43.7373675 C30.8081344,42.3123222 30.7742514,39.1949165 30.7742514,39.1949165 L30.1691992,39.2072834 C30.1691992,39.2072834 30.4170286,46.0166791 29.8497316,47.2571725 C29.1159243,48.8505978 26.9019172,49.3985458 26.9019172,48.6727049 C26.9019172,48.1846887 27.4469483,48.3397504 27.7489903,47.2457569 C28.0065006,46.3153869 27.918405,39.3737607 27.918405,39.3737607 C27.918405,39.3737607 27.2087997,39.785673 27.2087997,41.0860982 C27.2087997,41.6806599 27.1923423,45.0806012 27.1923423,46.0918317 C27.1923423,47.3646693 25.3529835,48.0895588 24.4691233,48.0895588 C24.0218687,48.0895588 23.4652206,48.067679 23.4652206,47.8346108 C23.4652206,47.2457569 25.1467818,46.9004355 25.1467818,45.6761142 C25.1467818,44.6144649 25.1235477,41.8832865 25.1235477,41.8832865 C25.1235477,41.8832865 24.2755066,42.0259813 23.0654021,42.0259813 C20.0159389,42.0259813 19.0517277,40.113871 18.5928561,39.04366 C17.9955486,37.6500075 17.2210817,36.9955141 16.3982107,36.4722998 C15.8928711,36.1507609 15.7767011,35.772144 16.3614235,35.6636959 C19.0604405,35.1642642 19.750684,38.6717023 21.5532556,39.2310659 C22.8398387,39.62966 24.4942934,39.4574749 25.3171645,38.9342607 C25.4255898,37.8630984 26.2116737,36.9365335 26.8660981,36.4485173 C22.2812544,36.0156764 19.5628758,34.4507902 18.1533462,31.9355566 C18.1355039,31.9359777 17.4893378,30.5684093 17.5434535,30.5685404 Z" id="Github" fill="#D8D8D8" sketch:type="MSShapeGroup"></path>
    </g>
</svg>