<?xml version="1.0" encoding="UTF-8" standalone="no"?>
<svg width="60px" height="60px" viewBox="0 0 60 60" version="1.1" xmlns="http://www.w3.org/2000/svg" xmlns:xlink="http://www.w3.org/1999/xlink" xmlns:sketch="http://www.bohemiancoding.com/sketch/ns">
    <!-- Generator: Sketch 3.5.1 (25234) - http://www.bohemiancoding.com/sketch -->
    <title>RSS</title>
    <desc>Created with Sketch.</desc>
    <defs></defs>
    <g id="Page-1" stroke="none" stroke-width="1" fill="none" fill-rule="evenodd" sketch:type="MSPage">
        <path d="M30,60 C46.5685433,60 60,46.5685433 60,30 C60,13.4314567 46.5685433,0 30,0 C13.4314567,0 0,13.4314567 0,30 C0,46.5685433 13.4314567,60 30,60 Z M23.2657502,42.277616 C21.3162913,42.277616 19.7324219,40.7052068 19.7324219,38.7571296 C19.7324219,36.8192934 21.3162913,35.2291656 23.2657502,35.2291656 C25.2228494,35.2291656 26.8037928,36.8192934 26.8037928,38.7571296 C26.8037115,40.7052881 25.2227681,42.277616 23.2657502,42.277616 Z M32.1422299,42.2701384 C32.1422299,38.9454513 30.8495805,35.8159133 28.5065722,33.4740429 C26.1611256,31.1272145 23.0456487,29.8318017 19.7324219,29.8318017 L19.7324219,24.7442705 C29.390392,24.7442705 37.2530067,32.6055847 37.2530067,42.2700571 L32.1422299,42.2700571 L32.1422299,42.2701384 Z M41.1645228,42.2673749 C41.1645228,30.438869 31.546948,20.8123535 19.7324219,20.8123535 L19.7324219,15.722384 C34.3625893,15.722384 46.2675781,27.6346878 46.2675781,42.2675375 L41.1645228,42.2673749 Z" id="RSS" fill="#D8D8D8" sketch:type="MSShapeGroup"></path>
    </g>
</svg>