<svg id="_2" data-name="2" xmlns="http://www.w3.org/2000/svg" viewBox="0 0 63.4 59.35"><defs><style>.cls-1{fill:#000;}</style></defs><title>chancetstorms</title><path class="cls-1" d="M20.36 44.81h-5.81a14.47 14.47 0 1 1 4.72-28.15 22.45 22.45 0 1 1 24.71 28 1.322 1.322 0 1 1-.36-2.62A19.8 19.8 0 1 0 21.5 18.71a1.32 1.32 0 0 1-1.87.94 11.84 11.84 0 1 0-5.09 22.51h5.81a1.325 1.325 0 1 1 .01 2.65z"/><path class="cls-1" d="M26.7 59.32a1.32 1.32 0 0 1-1-2.12l9.48-12.41h-8.43a1.32 1.32 0 0 1-1-2.15l5.29-6.61a1.32 1.32 0 1 1 2.06 1.65l-3.57 4.46h8.22a1.32 1.32 0 0 1 1.1 2.18l-11.1 14.51a1.32 1.32 0 0 1-1.05.49z"/></svg>