<svg id="_1" data-name="1" xmlns="http://www.w3.org/2000/svg" viewBox="0 0 63.4 59.59"><defs><style>.cls-1{fill:#000;}</style></defs><title>chancerain</title><path class="cls-1" d="M12.95 44.7h-.16a14.47 14.47 0 1 1 6.47-28 22.44 22.44 0 1 1 31.79 25.76 1.32 1.32 0 1 1-1.18-2.36A19.78 19.78 0 1 0 21.5 18.76a1.32 1.32 0 0 1-1.86.94 11.84 11.84 0 1 0-6.53 22.42 1.32 1.32 0 0 1-.16 2.58z"/><path class="cls-1" d="M19.02 48.49a1.32 1.32 0 0 1-1.32-1.32v-6.85a1.32 1.32 0 1 1 2.64 0v6.87a1.32 1.32 0 0 1-1.32 1.3zM27.48 48.49a1.32 1.32 0 0 1-1.32-1.32v-6.85a1.32 1.32 0 1 1 2.64 0v6.87a1.32 1.32 0 0 1-1.32 1.3zM35.93 48.49a1.32 1.32 0 0 1-1.32-1.32v-6.85a1.32 1.32 0 1 1 2.64 0v6.87a1.32 1.32 0 0 1-1.32 1.3zM44.38 48.49a1.32 1.32 0 0 1-1.32-1.32v-6.85a1.32 1.32 0 1 1 2.64 0v6.87a1.32 1.32 0 0 1-1.32 1.3zM23.25 59.59a1.32 1.32 0 0 1-1.32-1.32V51.4a1.32 1.32 0 1 1 2.64 0v6.87a1.32 1.32 0 0 1-1.32 1.32zM31.7 59.59a1.32 1.32 0 0 1-1.32-1.32V51.4a1.32 1.32 0 1 1 2.64 0v6.87a1.32 1.32 0 0 1-1.32 1.32zM40.16 59.59a1.32 1.32 0 0 1-1.32-1.32V51.4a1.32 1.32 0 1 1 2.64 0v6.87a1.32 1.32 0 0 1-1.32 1.32z"/></svg>