<svg id="_10" data-name="10" xmlns="http://www.w3.org/2000/svg" viewBox="0 0 58.63 58.63"><defs><style>.cls-1{fill:#000;}</style></defs><title>clear</title><path class="cls-1" d="M29.31 51.56a22.25 22.25 0 1 1 22.25-22.25 22.27 22.27 0 0 1-22.25 22.25zm0-41.87a19.63 19.63 0 1 0 19.63 19.63A19.65 19.65 0 0 0 29.31 9.69z"/><circle class="cls-1" cx="29.31" cy="1.57" r="1.57"/><circle class="cls-1" cx="29.31" cy="57.05" r="1.57"/><circle class="cls-1" cx="57.06" cy="29.31" r="1.57"/><circle class="cls-1" cx="1.57" cy="29.31" r="1.57"/><circle class="cls-1" cx="475.92" cy="1269.88" r="1.57" transform="rotate(-45 -1211.42 1174.806)"/><circle class="cls-1" cx="436.69" cy="1230.65" r="1.57" transform="rotate(-45.01 -1250.236 1135.514)"/><circle class="cls-1" cx="436.69" cy="1269.88" r="1.57" transform="rotate(-45 -1250.623 1174.845)"/><circle class="cls-1" cx="475.92" cy="1230.65" r="1.57" transform="rotate(-44.98 -1212.2 1135.79)"/></svg>