<svg id="_18" data-name="18" xmlns="http://www.w3.org/2000/svg" viewBox="0 0 49.06 44.86"><defs><style>.cls-1{fill:#fff;}</style></defs><title>night_clear</title><path class="cls-1" d="M22.57 44.86A22.66 22.66 0 0 1 3 33.57 22.13 22.13 0 0 1 22.69.01a1.35 1.35 0 0 1 1.16.66 1.32 1.32 0 0 1 0 1.33 19.33 19.33 0 0 0 16.91 29.29 1.33 1.33 0 0 1 1.15 2 21.56 21.56 0 0 1-19.34 11.57zm-2-42.12a18.65 18.65 0 0 0-7.91 2.29 19.91 19.91 0 0 0-7.29 27.21 19.9 19.9 0 0 0 27.21 7.29 18.65 18.65 0 0 0 5.94-5.71A21.93 21.93 0 0 1 20.57 2.74z"/><path class="cls-1" d="M36.57 19.62h-3.72a1.33 1.33 0 1 1 0-2.65h3.72a1.33 1.33 0 1 1 0 2.65z"/><path class="cls-1" d="M34.71 21.48a1.33 1.33 0 0 1-1.33-1.33v-3.72a1.33 1.33 0 1 1 2.66 0v3.73a1.33 1.33 0 0 1-1.33 1.32zM47.72 7.94h-5.84a1.33 1.33 0 0 1 0-2.66h5.84a1.33 1.33 0 0 1 0 2.66z"/><path class="cls-1" d="M44.8 10.86a1.33 1.33 0 0 1-1.33-1.33V3.69a1.33 1.33 0 1 1 2.65 0v5.84a1.33 1.33 0 0 1-1.32 1.33z"/></svg>