<svg id="_11" data-name="11" xmlns="http://www.w3.org/2000/svg" viewBox="0 0 61.94 40.98"><defs><style>.cls-1{fill:#000;}</style></defs><title>evening_clear</title><path class="cls-1" d="M51.3 25.9c.21-1.15-.2-1.8-.2-3a20.17 20.17 0 1 0-40.34 0l.14 1.39-3.09 1.62v-3a22.89 22.89 0 1 1 45.78 0v3.54z"/><path class="cls-1" d="M43.36 32.63a1.34 1.34 0 0 1-.84-.29l-20.17-16L2.23 32.35a1.35 1.35 0 0 1-1.68-2.11l21-16.7a1.34 1.34 0 0 1 1.68 0l21 16.7a1.35 1.35 0 0 1-.87 2.39zM43.9 40.98H17.51a1.35 1.35 0 0 1 0-2.69H43.9a1.35 1.35 0 1 1 0 2.69z"/><path class="cls-1" d="M60.59 32.63a1.34 1.34 0 0 1-.78-.25l-12.14-8.6-6.76 4.83a1.35 1.35 0 1 1-1.57-2.19l7.54-5.39a1.35 1.35 0 0 1 1.56 0l12.93 9.16a1.35 1.35 0 0 1-.78 2.44z"/></svg>