<svg id="_1" data-name="1" xmlns="http://www.w3.org/2000/svg" viewBox="0 0 63.4 57.97"><defs><style>.cls-1{fill:#000;}</style></defs><title>flurries</title><circle class="cls-1" cx="19.28" cy="50.05" r="1.58"/><circle class="cls-1" cx="27.74" cy="50.05" r="1.58"/><circle class="cls-1" cx="36.19" cy="50.05" r="1.58"/><circle class="cls-1" cx="44.64" cy="50.05" r="1.58"/><circle class="cls-1" cx="23.51" cy="56.39" r="1.59"/><circle class="cls-1" cx="31.96" cy="56.39" r="1.59"/><circle class="cls-1" cx="40.42" cy="56.39" r="1.59"/><path class="cls-1" d="M40.94 45.3H14.53a14.66 14.66 0 0 1 0-29.32 14.44 14.44 0 0 1 4.73.71A22.49 22.49 0 1 1 40.94 45.3zM14.52 18.49a11.91 11.91 0 0 0 0 23.81h26.42a19.82 19.82 0 1 0-19.45-23.59 1.32 1.32 0 0 1-1.86.93 11.79 11.79 0 0 0-5.1-1.15z"/></svg>