<svg id="_13" data-name="13" xmlns="http://www.w3.org/2000/svg" viewBox="0 0 71.68 69.87"><defs><style>.cls-1{fill:#000;}</style></defs><title>night_rain</title><path class="cls-1" d="M21.22 54.99h-.14a14.47 14.47 0 1 1 6.47-28 22.44 22.44 0 1 1 31.79 25.76 1.32 1.32 0 0 1-1.18-2.36 19.78 19.78 0 1 0-28.37-21.34 1.32 1.32 0 0 1-1.87.94 11.84 11.84 0 1 0-6.53 22.42 1.32 1.32 0 0 1-.17 2.58z"/><path class="cls-1" d="M27.3 58.78a1.32 1.32 0 0 1-1.32-1.32v-6.87a1.32 1.32 0 1 1 2.64 0v6.87a1.32 1.32 0 0 1-1.32 1.32zM35.75 58.78a1.32 1.32 0 0 1-1.32-1.32v-6.87a1.32 1.32 0 1 1 2.64 0v6.87a1.32 1.32 0 0 1-1.32 1.32zM44.21 58.78a1.32 1.32 0 0 1-1.32-1.32v-6.87a1.32 1.32 0 1 1 2.64 0v6.87a1.32 1.32 0 0 1-1.32 1.32zM52.66 58.78a1.32 1.32 0 0 1-1.32-1.32v-6.87a1.32 1.32 0 1 1 2.64 0v6.87a1.32 1.32 0 0 1-1.32 1.32zM31.53 69.88a1.32 1.32 0 0 1-1.32-1.32v-6.87a1.32 1.32 0 1 1 2.64 0v6.87a1.32 1.32 0 0 1-1.32 1.32zM39.98 69.88a1.32 1.32 0 0 1-1.32-1.32v-6.87a1.32 1.32 0 1 1 2.64 0v6.87a1.32 1.32 0 0 1-1.32 1.32zM48.43 69.88a1.32 1.32 0 0 1-1.32-1.32v-6.87a1.32 1.32 0 1 1 2.64 0v6.87a1.32 1.32 0 0 1-1.32 1.32zM4.73 35.27a1.32 1.32 0 0 1-1.11-.6A22.43 22.43 0 0 1 .25 19.11a1.32 1.32 0 0 1 1.9-1 11.89 11.89 0 0 0 16-16 1.32 1.32 0 0 1 1-1.9 22.56 22.56 0 0 1 19.23 6.33l.42.44.09.1a1.323 1.323 0 0 1-1.93 1.81l-.09-.1-.36-.37a19.92 19.92 0 0 0-15.25-5.76A14.53 14.53 0 0 1 2.68 21.18a19.77 19.77 0 0 0 3.15 12 1.32 1.32 0 0 1-1.1 2.09z"/></svg>