<svg id="_15" data-name="15" xmlns="http://www.w3.org/2000/svg" viewBox="0 0 71.68 69.64"><defs><style>.cls-1{fill:#000;}</style></defs><title>night_tstorms</title><path class="cls-1" d="M4.71 35.28a1.32 1.32 0 0 1-1.11-.6A22.44 22.44 0 0 1 .23 19.11a1.32 1.32 0 0 1 1.9-1 11.89 11.89 0 0 0 16-16 1.32 1.32 0 0 1 1-1.9 22.57 22.57 0 0 1 19.23 6.33l.42.44.09.1a1.323 1.323 0 0 1-1.93 1.81l-.09-.1-.36-.37a19.93 19.93 0 0 0-15.26-5.76A14.54 14.54 0 0 1 2.71 21.22a19.79 19.79 0 0 0 3.15 12 1.32 1.32 0 0 1-1.15 2.06zM28.63 55.1h-5.82a14.47 14.47 0 1 1 4.72-28.15 22.45 22.45 0 1 1 24.71 28 1.322 1.322 0 0 1-.36-2.62 19.8 19.8 0 1 0-22.11-23.32 1.32 1.32 0 0 1-1.87.94 11.84 11.84 0 1 0-5.09 22.51h5.81a1.32 1.32 0 0 1 .01 2.64z"/><path class="cls-1" d="M34.97 69.64a1.32 1.32 0 0 1-1-2.12l9.48-12.41h-8.43a1.32 1.32 0 0 1-1-2.15l5.29-6.61A1.32 1.32 0 1 1 41.37 48l-3.57 4.46h8.35a1.32 1.32 0 0 1 1 2.12l-11.1 14.54a1.32 1.32 0 0 1-1.08.52z"/></svg>