<svg id="_12" data-name="12" xmlns="http://www.w3.org/2000/svg" viewBox="0 0 71.68 49.8"><defs><style>.cls-1{fill:#000;}</style></defs><title>night_mostlycloudy</title><path class="cls-1" d="M49.22 49.81H22.8a14.46 14.46 0 1 1 4.73-28.14 22.44 22.44 0 1 1 21.69 28.14zM22.8 23.53a11.82 11.82 0 1 0 0 23.64h26.42a19.76 19.76 0 1 0-19.45-23.45 1.32 1.32 0 0 1-1.86.94 11.78 11.78 0 0 0-5.11-1.13z"/><path class="cls-1" d="M3.75 33.65a1.32 1.32 0 0 1-1.17-.7A22.63 22.63 0 0 1 .24 19.11a1.32 1.32 0 0 1 1.9-1 11.89 11.89 0 0 0 16-16 1.32 1.32 0 0 1 1-1.9 22.42 22.42 0 0 1 15.72 3.53 1.32 1.32 0 1 1-1.46 2.2 19.74 19.74 0 0 0-12.18-3.26A14.53 14.53 0 0 1 2.69 21.21 20 20 0 0 0 4.94 31.7a1.32 1.32 0 0 1-1.19 1.95z"/></svg>