<svg id="_3" data-name="3" xmlns="http://www.w3.org/2000/svg" viewBox="0 0 71.68 60.8"><defs><style>.cls-1{fill:#000;}</style></defs><title>partlycloudy</title><path class="cls-1" d="M49.22 60.8H22.8a14.5 14.5 0 1 1 4.73-28.23A22.45 22.45 0 1 1 49.22 60.8zM22.8 34.42a11.69 11.69 0 1 0 0 23.38h26.42a19.66 19.66 0 1 0-19.45-23.21 1.35 1.35 0 0 1-.7.95 1.32 1.32 0 0 1-1.16 0 11.77 11.77 0 0 0-5.11-1.12z"/><path class="cls-1" d="M6.39 37.49a1.32 1.32 0 0 1-1-.46A22.45 22.45 0 1 1 42.2 11.8a1.32 1.32 0 1 1-2.32 1.26A19.81 19.81 0 1 0 7.39 35.33a1.32 1.32 0 0 1-1 2.16z"/></svg>