<svg id="_1" data-name="1" xmlns="http://www.w3.org/2000/svg" viewBox="0 0 63.4 59.1"><defs><style>.cls-1{fill:#fff;}</style></defs><title>chancesleet</title><path class="cls-1" d="M22.72 58.93a1.32 1.32 0 0 1-.48-1.8l3.43-5.95a1.322 1.322 0 1 1 2.29 1.32l-3.43 5.95a1.32 1.32 0 0 1-1.81.48zM39.62 58.93a1.32 1.32 0 0 1-.48-1.8l3.43-5.95a1.322 1.322 0 1 1 2.29 1.32l-3.43 5.95a1.32 1.32 0 0 1-1.81.48z"/><circle class="cls-1" cx="19.28" cy="50.05" r="1.58"/><circle class="cls-1" cx="36.19" cy="50.05" r="1.58"/><circle class="cls-1" cx="31.96" cy="56.39" r="1.59"/><path class="cls-1" d="M40.94 45.3H14.53a14.66 14.66 0 0 1 0-29.32 14.44 14.44 0 0 1 4.73.71A22.49 22.49 0 1 1 40.94 45.3zM14.52 18.49a11.91 11.91 0 0 0 0 23.81h26.42a19.82 19.82 0 1 0-19.45-23.59 1.32 1.32 0 0 1-1.86.93 11.79 11.79 0 0 0-5.1-1.15z"/></svg>