<svg data-name="21" xmlns="http://www.w3.org/2000/svg" viewBox="0 0 13.24 44.81"><title>thermometer</title><path d="M6.62 44.81A6.62 6.62 0 0 1 2.38 33.1V4.33v-.08-.11A4.15 4.15 0 0 1 6.62-.01a4.21 4.21 0 0 1 4.24 4.18V33.1a6.62 6.62 0 0 1-4.24 11.71zM5.03 4.49v29.24a1.32 1.32 0 0 1-.59 1.11 4 4 0 1 0 4.37 0 1.32 1.32 0 0 1-.6-1.11V4.49a1.36 1.36 0 0 1 0-.19 1.42 1.42 0 0 1 0-.18 1.55 1.55 0 0 0-1.59-1.5 1.52 1.52 0 0 0-1.59 1.5 1.35 1.35 0 0 1 0 .19 1.37 1.37 0 0 1 0 .18zM3.72 2.98a1.32 1.32 0 0 1 1.31 1.13 1.32 1.32 0 0 0-1.31-1.1zm5.79 0a1.29 1.29 0 0 0-.59.14 1.31 1.31 0 0 1 .59-.11z"/></svg>