<svg id="_2" data-name="2" xmlns="http://www.w3.org/2000/svg" viewBox="0 0 63.4 59.13"><defs><style>.cls-1{fill:#000;}</style></defs><title>tstorms</title><path class="cls-1" d="M25.48 59.13a1.32 1.32 0 0 1-1-2.12l9.48-12.41h-8.43a1.32 1.32 0 0 1-1-2.15l5.29-6.61a1.32 1.32 0 1 1 2.06 1.65l-3.57 4.46h8.35a1.32 1.32 0 0 1 1.05 2.12l-11.1 14.54a1.32 1.32 0 0 1-1.13.52z"/><path class="cls-1" d="M12.26 44.61h-.22a14.47 14.47 0 1 1 7.21-27.93 22.45 22.45 0 0 1 44.16 5.73 22.25 22.25 0 0 1-10.55 19 1.32 1.32 0 0 1-1.4-2.24A19.76 19.76 0 0 0 40.95 2.65 19.83 19.83 0 0 0 21.5 18.72a1.32 1.32 0 0 1-1.86.94 11.84 11.84 0 1 0-7.14 22.33 1.32 1.32 0 0 1-.24 2.62z"/><path class="cls-1" d="M16.64 47.86a1.32 1.32 0 0 1-.48-1.8l3.43-5.95a1.322 1.322 0 1 1 2.29 1.32l-3.47 5.94a1.32 1.32 0 0 1-1.77.49zM42 47.86a1.32 1.32 0 0 1-.48-1.8l3.43-5.95a1.322 1.322 0 1 1 2.29 1.32l-3.43 5.95a1.32 1.32 0 0 1-1.81.48zM15.58 58.95a1.32 1.32 0 0 1-.48-1.8l3.43-5.95a1.322 1.322 0 1 1 2.29 1.32l-3.41 5.95a1.32 1.32 0 0 1-1.83.48zM34.49 58.95a1.32 1.32 0 0 1-.48-1.8l3.43-5.95a1.322 1.322 0 1 1 2.29 1.32l-3.43 5.95a1.32 1.32 0 0 1-1.81.48z"/></svg>