<svg id="_2" data-name="2" xmlns="http://www.w3.org/2000/svg" viewBox="0 0 63.4 50.32"><defs><style>.cls-1{fill:#fff;}</style></defs><title>wind</title><path class="cls-1" d="M31.19 34.49H1.38a1.33 1.33 0 0 1 0-2.66h29.81a4.06 4.06 0 0 0 0-8.12 1.33 1.33 0 1 1 0-2.66 6.72 6.72 0 0 1 0 13.44zM31.19 39.81H3.51a1.33 1.33 0 1 1 0-2.66h27.68a1.33 1.33 0 1 1 0 2.66z"/><path class="cls-1" d="M40.77 45.13h-1.06a1.33 1.33 0 1 1 0-2.66h1.06a19.91 19.91 0 1 0-19.6-23.62 1.33 1.33 0 0 1-1.88 1 11.87 11.87 0 0 0-5.14-1.15A12 12 0 0 0 2.6 27.57a1.333 1.333 0 0 1-2.57-.71 14.65 14.65 0 0 1 18.88-10 22.61 22.61 0 1 1 21.86 28.27zM31.19 50.32a1.33 1.33 0 1 1 0-2.66 1.27 1.27 0 1 0 0-2.53H11.5a1.33 1.33 0 1 1 0-2.66h19.69a3.93 3.93 0 1 1 0 7.85z"/></svg>